<mxfile host="app.diagrams.net" agent="Mozilla/5.0 (Windows NT 10.0; Win64; x64) AppleWebKit/537.36 (KHTML, like Gecko) Chrome/134.0.0.0 Safari/537.36" version="26.1.0">
  <diagram id="prtHgNgQTEPvFCAcTncT" name="Page-1">
    <mxGraphModel dx="794" dy="1890" grid="1" gridSize="10" guides="1" tooltips="1" connect="1" arrows="1" fold="1" page="1" pageScale="1" pageWidth="827" pageHeight="1169" math="0" shadow="0">
      <root>
        <mxCell id="0" />
        <mxCell id="1" parent="0" />
        <mxCell id="kLCtcZJA-MnO58HOizXd-3" value="&lt;span style=&quot;color: rgb(22, 22, 22); font-family: Arial, sans-serif; background-color: rgb(255, 255, 255);&quot;&gt;&lt;font&gt;Министерства земельных и имущественных отношений Республики Татарстан&lt;/font&gt;&lt;/span&gt;" style="swimlane;html=1;startSize=20;fontStyle=0;collapsible=0;horizontal=0;swimlaneLine=1;swimlaneFillColor=#ffffff;strokeWidth=2;whiteSpace=wrap;" vertex="1" parent="1">
          <mxGeometry x="50" y="-80" width="970" height="950" as="geometry" />
        </mxCell>
        <mxCell id="kLCtcZJA-MnO58HOizXd-2" value="&lt;span style=&quot;color: rgb(22, 22, 22); font-family: Arial, sans-serif; background-color: rgb(255, 255, 255);&quot;&gt;&lt;font&gt;Специалист отдела эффективного использования государственных земель Министерства&lt;/font&gt;&lt;/span&gt;" style="swimlane;html=1;startSize=20;fontStyle=0;collapsible=0;horizontal=0;swimlaneLine=1;swimlaneFillColor=#ffffff;strokeWidth=2;whiteSpace=wrap;" vertex="1" parent="kLCtcZJA-MnO58HOizXd-3">
          <mxGeometry x="20" y="440" width="950" height="510" as="geometry" />
        </mxCell>
        <mxCell id="kLCtcZJA-MnO58HOizXd-1" value="&lt;span style=&quot;color: rgb(22, 22, 22); font-family: Arial, sans-serif; background-color: rgb(255, 255, 255);&quot;&gt;&lt;font&gt;Специалист отдела контроля Министерства&lt;/font&gt;&lt;/span&gt;" style="swimlane;html=1;startSize=20;fontStyle=0;collapsible=0;horizontal=0;swimlaneLine=1;swimlaneFillColor=#ffffff;strokeWidth=2;whiteSpace=wrap;" vertex="1" parent="kLCtcZJA-MnO58HOizXd-3">
          <mxGeometry x="30" width="950" height="440" as="geometry" />
        </mxCell>
        <mxCell id="kLCtcZJA-MnO58HOizXd-4" value="" style="points=[[0.145,0.145,0],[0.5,0,0],[0.855,0.145,0],[1,0.5,0],[0.855,0.855,0],[0.5,1,0],[0.145,0.855,0],[0,0.5,0]];shape=mxgraph.bpmn.event;html=1;verticalLabelPosition=bottom;labelBackgroundColor=#ffffff;verticalAlign=top;align=center;perimeter=ellipsePerimeter;outlineConnect=0;aspect=fixed;outline=standard;symbol=general;fillColor=#d5e8d4;strokeColor=#82b366;" vertex="1" parent="kLCtcZJA-MnO58HOizXd-1">
          <mxGeometry x="50" y="172.5" width="50" height="50" as="geometry" />
        </mxCell>
        <mxCell id="kLCtcZJA-MnO58HOizXd-7" value="&lt;span style=&quot;color: rgb(22, 22, 22); font-family: Arial, sans-serif; text-align: left; background-color: rgb(255, 255, 255);&quot;&gt;&lt;font&gt;Поступило заявление ФЛ о предоставлении земельного участка&lt;/font&gt;&lt;/span&gt;" style="text;html=1;align=center;verticalAlign=middle;whiteSpace=wrap;rounded=0;" vertex="1" parent="kLCtcZJA-MnO58HOizXd-1">
          <mxGeometry x="100" y="50" width="140" height="60" as="geometry" />
        </mxCell>
        <mxCell id="kLCtcZJA-MnO58HOizXd-8" value="" style="endArrow=none;dashed=1;html=1;dashPattern=1 3;strokeWidth=2;rounded=0;entryX=0;entryY=0.75;entryDx=0;entryDy=0;" edge="1" parent="kLCtcZJA-MnO58HOizXd-1" source="kLCtcZJA-MnO58HOizXd-4" target="kLCtcZJA-MnO58HOizXd-7">
          <mxGeometry width="50" height="50" relative="1" as="geometry">
            <mxPoint x="30" y="100" as="sourcePoint" />
            <mxPoint x="80" y="50" as="targetPoint" />
          </mxGeometry>
        </mxCell>
        <mxCell id="kLCtcZJA-MnO58HOizXd-14" style="edgeStyle=orthogonalEdgeStyle;rounded=0;orthogonalLoop=1;jettySize=auto;html=1;" edge="1" parent="kLCtcZJA-MnO58HOizXd-1" source="kLCtcZJA-MnO58HOizXd-9" target="kLCtcZJA-MnO58HOizXd-13">
          <mxGeometry relative="1" as="geometry" />
        </mxCell>
        <mxCell id="kLCtcZJA-MnO58HOizXd-9" value="&lt;span style=&quot;color: rgb(22, 22, 22); font-family: Arial, sans-serif; background-color: rgb(255, 255, 255);&quot;&gt;&lt;font&gt;Проверка заявления и документов на наличие оснований для отказа в приеме документов&lt;/font&gt;&lt;/span&gt;" style="points=[[0.25,0,0],[0.5,0,0],[0.75,0,0],[1,0.25,0],[1,0.5,0],[1,0.75,0],[0.75,1,0],[0.5,1,0],[0.25,1,0],[0,0.75,0],[0,0.5,0],[0,0.25,0]];shape=mxgraph.bpmn.task2;whiteSpace=wrap;rectStyle=rounded;size=10;html=1;container=1;expand=0;collapsible=0;taskMarker=abstract;" vertex="1" parent="kLCtcZJA-MnO58HOizXd-1">
          <mxGeometry x="140" y="150" width="130" height="95" as="geometry" />
        </mxCell>
        <mxCell id="kLCtcZJA-MnO58HOizXd-10" style="edgeStyle=orthogonalEdgeStyle;rounded=0;orthogonalLoop=1;jettySize=auto;html=1;entryX=0;entryY=0.5;entryDx=0;entryDy=0;entryPerimeter=0;" edge="1" parent="kLCtcZJA-MnO58HOizXd-1" source="kLCtcZJA-MnO58HOizXd-4" target="kLCtcZJA-MnO58HOizXd-9">
          <mxGeometry relative="1" as="geometry" />
        </mxCell>
        <mxCell id="kLCtcZJA-MnO58HOizXd-11" value="&lt;span style=&quot;color: rgb(22, 22, 22); font-family: Arial, sans-serif; background-color: rgb(255, 255, 255);&quot;&gt;&lt;font&gt;Регистрация заявления и приложенных документов&lt;/font&gt;&lt;/span&gt;" style="points=[[0.25,0,0],[0.5,0,0],[0.75,0,0],[1,0.25,0],[1,0.5,0],[1,0.75,0],[0.75,1,0],[0.5,1,0],[0.25,1,0],[0,0.75,0],[0,0.5,0],[0,0.25,0]];shape=mxgraph.bpmn.task2;whiteSpace=wrap;rectStyle=rounded;size=10;html=1;container=1;expand=0;collapsible=0;taskMarker=abstract;" vertex="1" parent="kLCtcZJA-MnO58HOizXd-1">
          <mxGeometry x="420" y="280" width="130" height="95" as="geometry" />
        </mxCell>
        <mxCell id="kLCtcZJA-MnO58HOizXd-13" value="" style="points=[[0.25,0.25,0],[0.5,0,0],[0.75,0.25,0],[1,0.5,0],[0.75,0.75,0],[0.5,1,0],[0.25,0.75,0],[0,0.5,0]];shape=mxgraph.bpmn.gateway2;html=1;verticalLabelPosition=bottom;labelBackgroundColor=#ffffff;verticalAlign=top;align=center;perimeter=rhombusPerimeter;outlineConnect=0;outline=none;symbol=none;gwType=exclusive;" vertex="1" parent="kLCtcZJA-MnO58HOizXd-1">
          <mxGeometry x="310" y="172.5" width="50" height="50" as="geometry" />
        </mxCell>
        <mxCell id="kLCtcZJA-MnO58HOizXd-15" value="Основания для отказа в приеме присутствуют?" style="text;html=1;align=center;verticalAlign=middle;whiteSpace=wrap;rounded=0;" vertex="1" parent="kLCtcZJA-MnO58HOizXd-1">
          <mxGeometry x="277.5" y="120" width="115" height="47.5" as="geometry" />
        </mxCell>
        <mxCell id="kLCtcZJA-MnO58HOizXd-17" value="Нет" style="text;html=1;align=center;verticalAlign=middle;whiteSpace=wrap;rounded=0;rotation=0;" vertex="1" parent="kLCtcZJA-MnO58HOizXd-1">
          <mxGeometry x="277.5" y="222.5" width="60" height="30" as="geometry" />
        </mxCell>
        <mxCell id="kLCtcZJA-MnO58HOizXd-20" value="Да" style="text;html=1;align=center;verticalAlign=middle;whiteSpace=wrap;rounded=0;" vertex="1" parent="kLCtcZJA-MnO58HOizXd-1">
          <mxGeometry x="350" y="167.5" width="60" height="30" as="geometry" />
        </mxCell>
        <mxCell id="kLCtcZJA-MnO58HOizXd-21" value="&lt;span style=&quot;line-height: 107%;&quot;&gt;&lt;font&gt;Возврат заявления и документов заявителю без регистрации&lt;/font&gt;&lt;/span&gt;" style="points=[[0.25,0,0],[0.5,0,0],[0.75,0,0],[1,0.25,0],[1,0.5,0],[1,0.75,0],[0.75,1,0],[0.5,1,0],[0.25,1,0],[0,0.75,0],[0,0.5,0],[0,0.25,0]];shape=mxgraph.bpmn.task2;whiteSpace=wrap;rectStyle=rounded;size=10;html=1;container=1;expand=0;collapsible=0;taskMarker=abstract;" vertex="1" parent="kLCtcZJA-MnO58HOizXd-1">
          <mxGeometry x="420" y="150" width="130" height="95" as="geometry" />
        </mxCell>
        <mxCell id="kLCtcZJA-MnO58HOizXd-23" style="edgeStyle=orthogonalEdgeStyle;rounded=0;orthogonalLoop=1;jettySize=auto;html=1;entryX=0;entryY=0.5;entryDx=0;entryDy=0;entryPerimeter=0;" edge="1" parent="kLCtcZJA-MnO58HOizXd-1" source="kLCtcZJA-MnO58HOizXd-13" target="kLCtcZJA-MnO58HOizXd-21">
          <mxGeometry relative="1" as="geometry" />
        </mxCell>
        <mxCell id="kLCtcZJA-MnO58HOizXd-24" style="edgeStyle=orthogonalEdgeStyle;rounded=0;orthogonalLoop=1;jettySize=auto;html=1;entryX=0;entryY=0.5;entryDx=0;entryDy=0;entryPerimeter=0;" edge="1" parent="kLCtcZJA-MnO58HOizXd-1" source="kLCtcZJA-MnO58HOizXd-13" target="kLCtcZJA-MnO58HOizXd-11">
          <mxGeometry relative="1" as="geometry">
            <Array as="points">
              <mxPoint x="335" y="328" />
            </Array>
          </mxGeometry>
        </mxCell>
        <mxCell id="kLCtcZJA-MnO58HOizXd-25" value="" style="points=[[0.145,0.145,0],[0.5,0,0],[0.855,0.145,0],[1,0.5,0],[0.855,0.855,0],[0.5,1,0],[0.145,0.855,0],[0,0.5,0]];shape=mxgraph.bpmn.event;html=1;verticalLabelPosition=bottom;labelBackgroundColor=#ffffff;verticalAlign=top;align=center;perimeter=ellipsePerimeter;outlineConnect=0;aspect=fixed;outline=end;symbol=terminate2;fillColor=#f8cecc;strokeColor=#b85450;" vertex="1" parent="kLCtcZJA-MnO58HOizXd-1">
          <mxGeometry x="600" y="172.5" width="50" height="50" as="geometry" />
        </mxCell>
        <mxCell id="kLCtcZJA-MnO58HOizXd-26" style="edgeStyle=orthogonalEdgeStyle;rounded=0;orthogonalLoop=1;jettySize=auto;html=1;entryX=0;entryY=0.5;entryDx=0;entryDy=0;entryPerimeter=0;" edge="1" parent="kLCtcZJA-MnO58HOizXd-1" source="kLCtcZJA-MnO58HOizXd-21" target="kLCtcZJA-MnO58HOizXd-25">
          <mxGeometry relative="1" as="geometry" />
        </mxCell>
        <mxCell id="kLCtcZJA-MnO58HOizXd-27" value="" style="shape=mxgraph.bpmn.data2;labelPosition=center;verticalLabelPosition=bottom;align=center;verticalAlign=top;size=15;html=1;" vertex="1" parent="kLCtcZJA-MnO58HOizXd-1">
          <mxGeometry x="465" y="30" width="40" height="60" as="geometry" />
        </mxCell>
        <mxCell id="kLCtcZJA-MnO58HOizXd-28" style="edgeStyle=orthogonalEdgeStyle;rounded=0;orthogonalLoop=1;jettySize=auto;html=1;entryX=0.5;entryY=1;entryDx=0;entryDy=0;entryPerimeter=0;dashed=1;" edge="1" parent="kLCtcZJA-MnO58HOizXd-1" source="kLCtcZJA-MnO58HOizXd-21" target="kLCtcZJA-MnO58HOizXd-27">
          <mxGeometry relative="1" as="geometry" />
        </mxCell>
        <mxCell id="kLCtcZJA-MnO58HOizXd-29" value="&lt;span style=&quot;line-height: 107%; font-family: Calibri, sans-serif;&quot;&gt;&lt;font&gt;Решение об отказе в приеме документов&lt;/font&gt;&lt;/span&gt;" style="text;html=1;align=center;verticalAlign=middle;whiteSpace=wrap;rounded=0;" vertex="1" parent="kLCtcZJA-MnO58HOizXd-1">
          <mxGeometry x="505" y="30" width="140" height="45" as="geometry" />
        </mxCell>
      </root>
    </mxGraphModel>
  </diagram>
</mxfile>
